<svg xmlns:xlink="http://www.w3.org/1999/xlink" xmlns="http://www.w3.org/2000/svg" style="width: 28px" width="16"  height="16" ><defs><symbol id="location" viewBox="10 10 16 16"><path fill="none" d="M17.7 8c-4.2 0-7.7 3.5-7.7 7.7 0 7.2 5.9 11.8 7.7 13.1 1.8-1.2 7.7-5.8 7.7-13.1 0-4.2-3.5-7.7-7.7-7.7zm0 12.5c-2.5 0-4.6-2.1-4.6-4.6s2.1-4.6 4.6-4.6 4.6 2.1 4.6 4.6-2.1 4.6-4.6 4.6z"></path><path fill="none" d="M17.7 13.3c-1.4 0-2.6 1.2-2.6 2.6s1.2 2.6 2.6 2.6c1.399 0 2.6-1.2 2.6-2.6s-1.2-2.6-2.6-2.6z"></path><path fill="none" d="M18 14.88c-.84 0-1.56.72-1.56 1.56S17.16 18 18 18c.84 0 1.56-.72 1.56-1.56s-.72-1.56-1.56-1.56z"></path><path fill="none" d="M18 11.7c-2.52 0-4.62 2.1-4.62 4.62 0 4.32 3.54 7.08 4.62 7.859 1.08-.72 4.62-3.479 4.62-7.859 0-2.52-2.099-4.62-4.62-4.62zm0 7.5c-1.5 0-2.76-1.26-2.76-2.76s1.26-2.76 2.76-2.76 2.76 1.26 2.76 2.76S19.5 19.2 18 19.2z"></path><path d="M18 10.5c-3.18 0-5.82 2.64-5.82 5.82 0 5.76 5.28 8.939 5.521 9.12.12.06.18.06.3.06s.18 0 .3-.06c.239-.12 5.521-3.24 5.521-9.12C23.82 13.14 21.18 10.5 18 10.5zm0 13.68c-1.08-.779-4.62-3.539-4.62-7.859 0-2.521 2.1-4.62 4.62-4.62 2.521 0 4.62 2.1 4.62 4.62 0 4.379-3.54 7.139-4.62 7.859z"></path><path d="M18 13.68c-1.5 0-2.76 1.26-2.76 2.76S16.5 19.2 18 19.2s2.76-1.26 2.76-2.76-1.26-2.76-2.76-2.76zM18 18c-.84 0-1.56-.72-1.56-1.56s.72-1.56 1.56-1.56c.84 0 1.56.72 1.56 1.56S18.84 18 18 18z"></path></symbol></defs>
<use xlink:href="#location" fill="#00A651"></use>
</svg>